<?xml version="1.0" encoding="UTF-8"?>
<svg id="Objects" xmlns="http://www.w3.org/2000/svg" xmlns:xlink="http://www.w3.org/1999/xlink" version="1.1" viewBox="0 0 1860 695.7">
  <!-- Generator: Adobe Illustrator 30.2.1, SVG Export Plug-In . SVG Version: 2.1.1 Build 1)  -->
  <defs>
    <style>
      .st0 {
        fill: none;
      }

      .st1 {
        isolation: isolate;
      }

      .st2 {
        fill: #f9423a;
        fill-rule: evenodd;
      }

      .st3 {
        fill: #fff;
      }

      .st4 {
        clip-path: url(#clippath);
      }
    </style>
    <clipPath id="clippath">
      <rect class="st0" x="947.4" y="430.3" width="734.8" height="263.3"/>
    </clipPath>
  </defs>
  <g class="st4">
    <path class="st3" d="M988,593c-6-7.7-9-18.2-9-31.5s3.2-24.4,9.4-32c6.3-7.5,15.4-11.4,27.6-11.4s9.9.5,14.4,1.5,8.6,2.3,12.1,3.9l6.6-25.2c-11.2-4.6-23.1-6.8-35.7-6.8s-19.4,1.8-27.6,5.3c-8.2,3.6-15.1,8.5-20.8,14.7-5.7,6.3-10,13.7-13.1,22.3s-4.6,17.8-4.6,27.7,1.3,19.4,4,27.9c2.7,8.6,6.8,16,12.3,22.2s12.5,11.1,20.9,14.6,18.3,5.2,29.7,5.2,14.4-.7,21.3-2c6.8-1.3,12-2.9,15.4-4.6l-4.3-25.5c-3.8,1.5-8.2,2.8-13.3,3.9s-10.3,1.5-15.5,1.5c-14.1,0-24.1-3.9-30.1-11.6M1154.2,628.6c9.6-1.4,16.8-2.7,21.5-3.7v-80.8c0-7.8-.9-14.9-2.7-21.5s-4.7-12.1-9-16.7c-4.1-4.6-9.7-8.2-16.7-10.7-6.9-2.5-15.5-3.9-25.7-3.9s-16.5.7-24,2-13.2,2.7-17.1,4l3.9,25c3.8-1.3,8.6-2.5,14.6-3.6s12.5-1.5,19.7-1.5,9.6.7,13.1,2,6.3,3.3,8.4,5.8,3.6,5.3,4.4,8.6c.9,3.2,1.3,6.6,1.3,10.2v5.1h0v21.7h0v34.1c-4.9,1-12.1,1.5-21.7,1.5s-14.1-1.4-18.6-4.2c-4.6-2.8-6.8-7.9-6.8-15.1s.9-6.8,2.6-9.3c1.7-2.4,4-4.3,6.7-5.8,2.8-1.3,6-2.3,9.4-2.8,3.5-.5,6.9-.8,10.3-.8s3.9.3,5.8.4l-3.3-22.2c-2.4-.2-4.8-.4-7.1-.4-7.3,0-14.3.8-21,2.1-6.7,1.4-12.6,3.9-17.7,7.1s-9.2,7.6-12.1,12.8c-3,5.3-4.4,11.8-4.4,19.4s1.3,14.6,4,20.1c2.6,5.4,6.3,9.8,11,13.3,4.6,3.4,10.3,5.9,17,7.4,6.6,1.5,13.9,2.3,21.9,2.3,12,0,22.9-.8,32.5-2.1M1319.4,589.5c2.6-8.5,4-17.8,4-28s-1.5-20.3-4.7-28.9-7.6-15.9-13.5-21.9c-5.9-6.1-12.9-10.7-21.3-13.9s-17.7-4.8-28.2-4.8-19.9.8-29.1,2.3-17,3.2-23.2,4.8v194.5h.3l30.5-5.8v-64.4h0v-26.8h0v-76.2c3.1-.9,6.2-1.4,9.3-1.6s6.2-.4,9.1-.4c13.8,0,23.7,3.9,30,11.5,6.2,7.6,9.3,18.3,9.3,32.1s-2.6,23.2-7.8,30.8-13.4,11.5-24.6,11.5-5.8-.4-8.6-1l-3.3,25.2c5.2,1.4,10.8,2.2,17,2.2,9.3,0,17.7-1.7,25.1-5.1,7.4-3.4,13.6-8.2,18.5-14.3s8.7-13.4,11.4-21.9M1396.5,630.6l4.3-25.4c-4-.5-7.4-1.3-10-2.1s-4.7-2.3-6.3-4-2.6-4-3.2-6.5c-.6-2.6-.9-5.7-.9-9.4v-152.6l-30.8,5.1v153.4c0,6.6.8,12.5,2.1,17.7,1.3,5.2,4,9.5,7.5,13,3.6,3.5,8.4,6.2,14.4,8s13.7,2.9,22.8,3.1M1512.5,561.3c0,13.4-2.8,24.1-8.6,31.8-5.7,7.8-13.7,11.8-23.8,11.8s-18.1-3.9-23.8-11.8c-5.7-7.8-8.6-18.4-8.6-31.8s2.8-23.7,8.6-31.5c5.7-7.7,13.6-11.6,23.8-11.6s18.1,3.9,23.8,11.6c5.7,7.7,8.6,18.2,8.6,31.5M1539.6,590.1c3.1-8.7,4.6-18.3,4.6-28.8s-1.5-20-4.7-28.7c-3.2-8.6-7.5-15.9-13.1-22.1-5.6-6.2-12.3-10.8-20.2-14.2-7.9-3.3-16.6-4.9-25.8-4.9s-17.9,1.6-25.7,4.9c-7.8,3.3-14.6,8-20.2,14.2-5.7,6.1-10.1,13.5-13.3,22.1s-4.7,18.1-4.7,28.7,1.5,20.1,4.7,28.8,7.5,16.1,13.1,22.2,12.3,10.9,20.1,14.3c7.8,3.4,16.5,5.1,26,5.1s18.2-1.7,26.1-5.1,14.6-8.2,20.2-14.3,9.9-13.5,13-22.2M1682.3,628.1v-75c0-9-.9-17.2-2.7-24.9s-4.8-14-9.2-19.4-10.1-9.5-17.4-12.5-16.4-4.4-27.3-4.4-22.1.8-31.6,2.3-17.2,3.2-23.2,4.8v128.9h30.8v-107.5c2-.3,5.2-.8,9.4-1.3s8.3-.8,12.2-.8,9.7.8,13.4,2.1,6.6,3.8,8.7,6.8c2.1,3.2,3.7,7.2,4.6,12.2s1.3,11.1,1.3,18.2v70.1h30.8v.2l.2.2Z"/>
  </g>
  <g class="st1">
    <g class="st1">
      <path class="st3" d="M108.1,479.1h33.5v149h-33.5v-63.2h-56.3v63.2H18.2v-149h33.5v57h56.3v-57h0Z"/>
      <path class="st3" d="M279.6,571.3c0,8.9-1.3,17-3.9,24.4s-6.3,13.7-11.2,18.9c-4.9,5.2-10.7,9.3-17.5,12.1-6.8,2.9-14.4,4.3-22.9,4.3s-15.9-1.4-22.7-4.3c-6.8-2.9-12.6-6.9-17.5-12.1-4.9-5.2-8.7-11.5-11.4-18.9s-4.1-15.5-4.1-24.4,1.4-17,4.2-24.3,6.7-13.5,11.6-18.7c4.9-5.2,10.8-9.2,17.6-12,6.8-2.9,14.2-4.3,22.2-4.3s15.7,1.4,22.5,4.3c6.8,2.9,12.6,6.9,17.5,12,4.9,5.2,8.7,11.4,11.4,18.7,2.7,7.3,4.1,15.4,4.1,24.3h.1ZM246.9,571.3c0-9.9-2-17.7-5.9-23.3-3.9-5.7-9.6-8.5-16.9-8.5s-13,2.8-17,8.5-6,13.4-6,23.3,2,17.7,6,23.5,9.7,8.7,17,8.7,12.9-2.9,16.9-8.7c3.9-5.8,5.9-13.7,5.9-23.5Z"/>
      <path class="st3" d="M366.5,568.1c0-10.3-1.3-17.6-4-21.9-2.7-4.3-7.2-6.4-13.7-6.4s-4.1,0-6.2.3c-2.2.2-4.2.5-6.2.8v87.3h-32v-109.2c2.7-.7,5.9-1.5,9.6-2.3s7.5-1.5,11.6-2.2c4.1-.6,8.3-1.1,12.6-1.5,4.3-.4,8.5-.5,12.7-.5,8.2,0,14.8,1,19.9,3.1s9.3,4.6,12.6,7.4c4.6-3.3,9.9-5.9,15.8-7.7,5.9-1.9,11.4-2.8,16.4-2.8,9,0,16.4,1.3,22.2,3.8,5.8,2.5,10.4,6.1,13.9,10.6,3.4,4.6,5.8,10,7.1,16.3,1.3,6.3,1.9,13.3,1.9,21.1v63.8h-32v-60c0-10.3-1.3-17.6-4-21.9-2.7-4.3-7.2-6.4-13.7-6.4s-4.1.4-7.2,1.3c-3.1.9-5.6,1.9-7.6,3.2,1,3.3,1.6,6.8,1.9,10.4.3,3.7.4,7.6.4,11.7v61.7h-32v-60h0Z"/>
      <path class="st3" d="M484.3,572.4c0-10,1.5-18.8,4.6-26.3s7.1-13.8,12.1-18.8,10.8-8.8,17.3-11.4c6.5-2.6,13.2-3.9,20.1-3.9,16,0,28.7,4.9,38.1,14.7,9.3,9.8,14,24.3,14,43.3s0,3.9-.2,6.1c0,2.2-.3,4.2-.4,5.9h-72.7c.7,6.6,3.8,11.8,9.2,15.7s12.8,5.8,21.9,5.8,11.6-.5,17.3-1.6,10.3-2.4,13.9-4l4.3,26c-1.7.9-4,1.7-6.9,2.6-2.9.9-6.1,1.6-9.6,2.3-3.5.6-7.3,1.2-11.3,1.6-4,.4-8,.6-12,.6-10.2,0-19-1.5-26.5-4.5s-13.8-7.1-18.7-12.4c-4.9-5.2-8.6-11.4-11-18.6-2.4-7.2-3.5-14.9-3.5-23.2h0ZM559.5,560.1c0-2.7-.6-5.4-1.4-8-.8-2.6-2-4.9-3.7-6.9-1.6-2-3.7-3.7-6.2-4.9-2.5-1.3-5.6-1.9-9.4-1.9s-6.7.6-9.2,1.8c-2.6,1.2-4.7,2.8-6.4,4.8s-3,4.3-4,7c-.9,2.7-1.6,5.3-2,8.1h42.4,0Z"/>
      <path class="st3" d="M772.6,571.3c0,8.9-1.3,17-3.9,24.4-2.6,7.4-6.3,13.7-11.2,18.9s-10.7,9.3-17.5,12.1c-6.8,2.9-14.4,4.3-22.9,4.3s-15.9-1.4-22.7-4.3c-6.8-2.9-12.7-6.9-17.5-12.1-4.9-5.2-8.7-11.5-11.4-18.9s-4.1-15.5-4.1-24.4,1.4-17,4.2-24.3,6.7-13.5,11.6-18.7c4.9-5.2,10.8-9.2,17.6-12,6.8-2.9,14.2-4.3,22.2-4.3s15.7,1.4,22.5,4.3c6.8,2.9,12.6,6.9,17.5,12,4.9,5.2,8.7,11.4,11.4,18.7s4.1,15.4,4.1,24.3h.1ZM739.9,571.3c0-9.9-2-17.7-5.9-23.3-3.9-5.7-9.6-8.5-16.9-8.5s-13,2.8-17,8.5-6,13.4-6,23.3,2,17.7,6,23.5,9.7,8.7,17,8.7,12.9-2.9,16.9-8.7c3.9-5.8,5.9-13.7,5.9-23.5Z"/>
      <path class="st3" d="M846.3,461.2c6,0,11.5.6,16.6,1.8,5,1.2,8.9,2.4,11.6,3.5l-6.2,25.6c-2.9-1.3-6-2.3-9.4-2.9s-6.5-1-9.4-1-7.1.5-9.8,1.6-4.7,2.5-6.2,4.4-2.6,4.1-3.2,6.7c-.6,2.6-1,5.4-1,8.4v5.6h39.6v26.7h-39.6v86.4h-32v-119.1c0-14.6,4.1-26.2,12.4-34.8,8.2-8.6,20.5-12.9,36.7-12.9h0Z"/>
    </g>
  </g>
  <g class="st1">
    <g class="st1">
      <path class="st3" d="M1859.4,549.6c0,12.2-2,23.1-6.1,32.8s-9.6,17.8-16.4,24.5c-6.9,6.7-14.8,11.8-23.9,15.3-9,3.5-18.5,5.3-28.4,5.3s-19.3-1.8-28.4-5.3c-9-3.5-17-8.6-23.9-15.3s-12.4-14.8-16.4-24.5c-4.1-9.7-6.1-20.6-6.1-32.8s2-23.1,6.1-32.8,9.6-17.8,16.4-24.5c6.9-6.7,14.8-11.8,23.9-15.3,9-3.5,18.5-5.3,28.4-5.3s19.3,1.8,28.4,5.3c9,3.5,17,8.6,23.9,15.3,6.9,6.7,12.4,14.8,16.4,24.5,4.1,9.7,6.1,20.6,6.1,32.8ZM1837.5,549.6c0-8.6-1.3-16.4-3.9-23.4s-6.2-13-10.9-18.1c-4.7-5-10.2-8.9-16.8-11.6-6.5-2.7-13.7-4.1-21.4-4.1s-14.9,1.4-21.4,4.1-12.1,6.6-16.8,11.6c-4.7,5-8.3,11-10.9,18.1-2.6,7-3.9,14.8-3.9,23.4s1.3,16.4,3.9,23.4,6.2,13,10.9,18.1c4.7,5,10.2,8.9,16.8,11.6,6.5,2.7,13.7,4.1,21.4,4.1s14.9-1.4,21.4-4.1,12.1-6.6,16.8-11.6c4.7-5,8.3-11,10.9-18.1,2.6-7,3.9-14.8,3.9-23.4ZM1788.1,589.8c-12.8,0-22.5-3.5-29.2-10.5s-10.1-17.1-10.1-30.1,3.5-22.9,10.6-29.9,16.4-10.5,28.1-10.5,12.4.9,16.7,2.8c4.2,1.9,7.1,3.2,8.7,4.1l-6.9,18.9c-2-1.1-4.3-2.1-6.8-2.9s-5.8-1.2-9.8-1.2-8.5,1.5-11.4,4.5-4.3,7.4-4.3,13.1.2,5.1.6,7.4c.4,2.4,1.2,4.4,2.4,6.2,1.1,1.8,2.7,3.3,4.7,4.4s4.7,1.7,8,1.7,7.9-.5,10.7-1.5c2.9-1,5.4-1.9,7.7-2.8l6,19.6c-1.9,1-5,2.4-9.5,4.1-4.4,1.7-9.9,2.6-16.3,2.6h.1Z"/>
    </g>
  </g>
  <g>
    <path class="st3" d="M1844.9,120l11.5-43.9c-19.7-8-40.9-12.1-62.1-11.9-16.4-.2-32.8,2.9-47.9,9.3-13.7,5.9-26,14.6-36.1,25.6-10.1,11.3-17.8,24.4-22.8,38.8-5.4,15.4-8.1,31.8-8,48.1-.2,16.4,2.2,32.8,7.1,48.5,4.3,14.2,11.7,27.3,21.4,38.5,10,11.1,22.4,19.7,36.4,25.2,16.4,6.4,34,9.5,51.6,9.1,12.4,0,24.8-1.1,37-3.5,9.2-1.5,18.2-4.2,26.8-8l-7.5-44.3c-7.5,2.9-15.2,5.2-23.1,6.6-8.8,1.8-17.9,2.6-26.9,2.6-19.6,2-39.1-5.5-52.3-20.1-11.1-16-16.6-35.3-15.5-54.7-1.2-19.8,4.6-39.6,16.4-55.6,12-13.6,29.8-20.9,47.9-19.7,8.4,0,16.8.8,25,2.7,7.2,1.6,14.2,3.8,21,6.6M1639.3,192.5c0-3.7.2-7,.2-9.9,2.4-31.9-7.2-63.4-26.8-88.6-19.3-20.4-46.6-31.3-74.6-29.7-13.7,0-27.2,2.6-39.9,7.7-13,5.2-24.8,13-34.7,23.1-10.6,11-18.8,24-24.1,38.4-6.4,17.1-9.4,35.4-9.1,53.6-.2,16.3,2.2,32.6,7.1,48.1,4.4,14.1,11.8,27.1,21.7,38.1,10.3,11.1,23.1,19.7,37.3,25.1,16.9,6.4,35.1,9.5,53.2,9.1,7.8,0,15.7-.4,23.4-1.3,7.7-.9,14.8-2,21.5-3.3,6-1.1,11.9-2.6,17.7-4.4,4.2-1.2,8.2-2.8,12.2-4.6l-7.2-43.9c-8.2,3.3-16.8,5.8-25.4,7.5-11.7,2.4-23.7,3.6-35.7,3.5-18.2,1.3-36.3-4.1-50.8-15.2-12.1-11.1-19.2-26.7-19.7-43.2-1.6-13.1-1.5-26.3.4-39.5.9-6.8,2.5-13.4,4.8-19.9,2.2-6.3,5.6-12.2,10-17.3,4.3-5.1,9.7-9.2,15.7-12.2,6.8-3.2,14.3-4.8,21.8-4.6,7.1-.2,14.1,1.3,20.6,4.2,5.7,2.7,10.6,6.7,14.6,11.5,4.1,5.1,7.2,11,9.1,17.3,2.1,6.8,3.1,13.8,3.1,20.9h-69.4l-5.4,39.5h127.5c.3-3,.5-6.3.7-10M1380.3,302.8c8.3-2.2,16.4-4.9,24.3-8.2l-8.8-42.6c-5.9,2.2-11.8,4.2-17.9,5.8-8.5,2.2-17.2,3.2-25.9,3.1-11.4,1.2-22.6-3.3-30.2-11.9-6.9-12.1-10-25.9-8.8-39.9v-94.4h82.4v-44.8h-82.4V0l-53.7,8.8v200.7c-.2,13.7,1.2,27.5,4,41,2.2,11.1,6.9,21.5,13.7,30.6,6.9,8.7,15.9,15.3,26.3,19.2,13.2,4.8,27.3,7,41.5,6.6,11.9.2,23.8-1.2,35.5-4.2M1215.6,240.1c.2-9-1.2-18-4-26.5-2.7-7.4-7-14.1-12.6-19.7-6.4-6.2-13.8-11.4-21.9-15.4-10.5-5.3-21.2-9.9-32.4-13.9-6.6-2.2-13.1-4.8-19.5-7.7-4.5-2-8.8-4.6-12.8-7.5-2.9-2.1-5.3-4.9-6.8-8.2-1.4-3.2-2-6.7-1.9-10.2-.3-7.2,3.7-13.9,10.2-17.1,8.3-4,17.4-5.9,26.6-5.5,10.7-.2,21.4,1,31.9,3.3,7.7,1.8,15.3,4.2,22.6,7.3l9.7-43.4c-9.1-3.2-18.4-5.6-27.9-7.3-12.8-2.6-25.9-3.9-39-3.8-22.7-1.2-45.2,5.2-63.8,18.3-15.5,11.9-24.2,30.8-23.4,50.3-.3,9.5,1.5,18.9,5.1,27.6,3.2,7.3,8,13.9,13.9,19.2,6.3,5.6,13.4,10.3,21,13.9,8.7,4.2,17.6,8,26.8,11.3,12.1,4,23.6,9.5,34.4,16.4,6.5,4.2,10.4,11.3,10.4,19,.6,7.2-3.3,14.1-9.7,17.5-9.8,4-20.4,5.8-31.1,5.1-12.7.2-25.5-1.3-37.9-4.4-9.7-2.5-19.2-5.6-28.5-9.3l-9.2,44.7c8.5,3.2,17.3,5.9,26.1,8.2,16.1,3.8,32.7,5.5,49.2,5.1,24.6,1.5,49.1-4.4,70.2-17,16.3-11.3,25.7-30.4,24.5-50.3M945.2,301.7h53.6V70h-53.6v231.7ZM898.5,240.1c.2-9-1.2-18-4-26.5-2.7-7.4-7-14.1-12.6-19.6-6.5-6.2-13.8-11.4-21.9-15.4-10.5-5.3-21.2-9.9-32.4-13.9-6.6-2.2-13.1-4.8-19.5-7.7-4.5-2-8.8-4.6-12.8-7.5-2.9-2.1-5.3-4.9-6.9-8.2-1.4-3.2-2-6.7-1.9-10.2-.3-7.2,3.7-13.9,10.2-17.1,8.3-4,17.4-5.9,26.5-5.5,10.7-.2,21.4,1,31.9,3.3,7.7,1.8,15.3,4.2,22.6,7.3l9.8-43.4c-9.1-3.1-18.4-5.6-27.9-7.3-12.8-2.6-25.8-3.9-39-3.8-22.7-1.2-45.3,5.2-63.8,18.3-15.5,11.9-24.2,30.8-23.5,50.3-.3,9.5,1.5,18.9,5.1,27.6,3.2,7.3,8,13.9,13.9,19.2,6.3,5.6,13.4,10.3,21,13.9,8.7,4.2,17.6,8,26.8,11.3,12.1,4,23.6,9.5,34.4,16.4,6.5,4.2,10.4,11.3,10.4,19,.6,7.2-3.3,14.1-9.7,17.5-9.8,4-20.4,5.8-31.1,5.1-12.8.2-25.5-1.3-37.9-4.4-9.7-2.5-19.2-5.6-28.5-9.3l-9.4,44.7c8.5,3.2,17.3,5.9,26.1,8.2,16.1,3.8,32.7,5.5,49.2,5.1,24.6,1.5,49.1-4.4,70.2-17,16.3-11.3,25.7-30.4,24.5-50.3M627.7,301.7h53.6v-130.2c0-14.5-1.4-29.1-4.6-43.2-2.7-12.3-8.2-23.8-15.9-33.7-8.1-9.7-18.5-17.2-30.4-21.7-15.1-5.6-31.3-8.2-47.4-7.7-18.3,0-36.8,1.2-54.9,4-13.6,2-27,4.8-40.4,8.4v224.1h53.6V114.8c3.5-.6,9-1.3,16.4-2.2,7-.8,14.2-1.2,21.3-1.2,7.9-.2,15.8,1.1,23.2,3.8,6.1,2.3,11.4,6.5,15,11.9,4.1,6.5,6.8,13.7,8,21.2,1.8,10.4,2.6,21,2.4,31.7v121.6h0,.2ZM437.1,235.6c5.5-16.1,8.2-33.1,8-50.1.2-16.9-2.5-33.9-8.2-49.9-5-14.1-12.8-27.1-22.8-38.3-9.8-10.7-21.8-19-35.3-24.5-14.2-5.8-29.6-8.8-45-8.6-15.3-.2-30.6,2.8-44.8,8.6-13.3,5.6-25.3,13.9-35.3,24.5-10.2,11.1-18,24.1-23.1,38.4-5.6,16-8.4,32.9-8.2,49.9-.2,17,2.5,34,8.2,50.1,5,14.2,12.7,27.3,22.8,38.5,9.8,10.6,21.7,19.1,35,24.8,14.3,6,29.7,9,45.2,8.8,15.6.2,31.1-2.8,45.4-8.8,13.4-5.6,25.4-14.1,35.3-24.8,10-11.1,17.7-24.2,22.6-38.5M389.9,185.6c1.1,19.5-4.1,39-14.8,55.4-9.4,13.3-25,21-41.4,20.4-16.4.6-32-7-41.5-20.4-10.7-16.4-15.9-35.8-14.9-55.4-1-19.3,4.2-38.6,14.9-54.7,9.5-13.2,25.1-20.8,41.5-20.1,16.3-.7,31.9,6.9,41.5,20.1,10.7,16.1,15.9,35.4,14.8,54.7M88.8,240.8c-11.1-16-16.5-35.3-15.5-54.7-1.3-19.8,4.5-39.6,16.3-55.6,12-13.6,29.8-20.9,47.9-19.7,8.4,0,16.8.8,25,2.7,7.2,1.6,14.2,3.8,21,6.7l11.5-43.9c-19.7-8-40.8-12-62-11.9-16.4-.3-32.8,2.9-47.9,9.3-13.7,5.9-26,14.6-36.2,25.6-10.1,11.3-17.8,24.4-22.8,38.8-5.4,15.4-8.1,31.8-8,48.1-.1,16.4,2.2,32.9,7.1,48.5,4.3,14.2,11.7,27.3,21.5,38.5,10,11.1,22.4,19.7,36.4,25.2,16.4,6.4,34,9.5,51.6,9.1,12.4,0,24.8-1.1,37-3.5,9.2-1.5,18.2-4.2,26.8-8l-7.5-44.3c-7.5,2.9-15.2,5.2-23.1,6.6-8.9,1.8-17.9,2.6-26.9,2.6-19.6,2-39.1-5.5-52.3-20.1"/>
    <polygon class="st2" points="999.8 0 999.8 42.8 946.1 42.8 946.1 10.3 999.8 0"/>
  </g>
</svg>