<svg width="57" height="57" viewBox="0 0 57 57" fill="none" xmlns="http://www.w3.org/2000/svg">
<g clip-path="url(#clip0_938_697)">
<path d="M38.5999 28.2698C38.4799 25.4798 37.4599 23.1098 35.5199 21.1698C33.5799 19.2298 31.2099 18.1998 28.4199 18.0898V16.0098C30.0999 16.0598 31.6699 16.4098 33.1299 17.0598C34.5899 17.7098 35.8799 18.5998 36.9799 19.6998C38.0799 20.7998 38.9699 22.0898 39.6199 23.5498C40.2799 25.0098 40.6299 26.5798 40.6699 28.2598H38.5999V28.2698Z" fill="#EE7100"/>
<path d="M32.7302 28.2699C32.6102 27.1199 32.1502 26.1499 31.3502 25.3499C30.5502 24.5499 29.5702 24.0999 28.4102 23.9899V21.9199C30.1402 22.0399 31.6002 22.6899 32.8102 23.8899C34.0202 25.0899 34.6802 26.5499 34.8002 28.2799H32.7302V28.2699Z" fill="#EE7100"/>
<path d="M39.2202 40.9403C36.5502 40.9403 33.8302 40.3003 31.0502 39.0103C28.2802 37.7203 25.7002 35.8903 23.3302 33.5203C20.9602 31.1503 19.1302 28.5803 17.8402 25.8003C16.5502 23.0303 15.9102 20.3003 15.9102 17.6303C15.9102 17.1903 16.0602 16.8203 16.3602 16.5203C16.6602 16.2203 17.0302 16.0703 17.4702 16.0703H22.3002C22.6202 16.0703 22.9002 16.1903 23.1302 16.4203C23.3602 16.6503 23.5202 16.9403 23.6102 17.2803L24.5402 21.6303C24.5902 21.9503 24.5802 22.2503 24.5202 22.5103C24.4602 22.7703 24.3402 23.0003 24.1602 23.1803L20.7102 26.6703C21.3102 27.6803 21.9402 28.6303 22.6102 29.5003C23.2802 30.3703 24.0102 31.2003 24.8202 31.9903C25.6702 32.8603 26.5702 33.6603 27.5102 34.3903C28.4502 35.1203 29.4402 35.7503 30.4802 36.3103L33.7602 32.9303C33.9902 32.6803 34.2502 32.5003 34.5502 32.4103C34.8502 32.3203 35.1502 32.2903 35.4502 32.3403L39.5602 33.2403C39.9102 33.3303 40.1902 33.5203 40.4202 33.7903C40.6502 34.0603 40.7702 34.3803 40.7702 34.7203V39.3803C40.7702 39.8203 40.6202 40.1903 40.3202 40.4903C40.0202 40.7903 39.6502 40.9403 39.2102 40.9403H39.2202Z" fill="black"/>
</g>
<defs>
<clipPath id="clip0_938_697">
<rect width="56.69" height="56.69" fill="white"/>
</clipPath>
</defs>
</svg>
