<svg width="57" height="57" viewBox="0 0 57 57" fill="none" xmlns="http://www.w3.org/2000/svg">
<g clip-path="url(#clip0_938_691)">
<path d="M18.9092 19.6094H12.6992V21.9394H18.9092V19.6094Z" fill="#EE7100"/>
<path d="M18.9104 25.8203H11.1504V28.1503H18.9104V25.8203Z" fill="#EE7100"/>
<path d="M18.9092 32.0293H12.6992V34.3593H18.9092V32.0293Z" fill="#EE7100"/>
<path d="M21.6992 19.4408V35.5508C21.6992 36.1808 22.2092 36.6908 22.8392 36.6908H43.1992C43.8292 36.6908 44.3392 36.1808 44.3392 35.5508V19.4408C44.3392 18.8108 43.8292 18.3008 43.1992 18.3008H22.8392C22.2092 18.3008 21.6992 18.8108 21.6992 19.4408ZM41.8192 24.5008L33.0092 30.4408L24.1992 24.5008V22.4208L33.0092 28.2208L41.8192 22.4208V24.5008Z" fill="black"/>
</g>
<defs>
<clipPath id="clip0_938_691">
<rect width="56.69" height="56.69" fill="white"/>
</clipPath>
</defs>
</svg>
