<?xml version="1.0" encoding="UTF-8"?>
<svg version="1.1" xmlns="http://www.w3.org/2000/svg" width="189" height="87">
<path d="M0 0 C62.37 0 124.74 0 189 0 C189 28.71 189 57.42 189 87 C126.63 87 64.26 87 0 87 C0 58.29 0 29.58 0 0 Z " fill="#4E288F" transform="translate(0,0)"/>
<path d="M0 0 C62.37 0 124.74 0 189 0 C189 28.71 189 57.42 189 87 C126.63 87 64.26 87 0 87 C0 58.29 0 29.58 0 0 Z M19.28883362 20.97549438 C16.82715652 23.1528825 14.25504707 24.74962274 11.45532227 26.46289062 C8.12787886 28.70860752 8.12787886 28.70860752 6.13726807 32.06124878 C5.82806315 34.4262901 5.84259359 36.58087306 5.98828125 38.9609375 C6.00005905 39.7921109 6.01183685 40.6232843 6.02397156 41.47964478 C6.07302587 44.11506249 6.19220336 46.74197413 6.3125 49.375 C6.35412278 51.16526534 6.3912774 52.95564048 6.42382812 54.74609375 C5.95857346 62.39963822 5.95857346 62.39963822 8 69 C10.01964199 69.07244053 12.04167124 69.08377188 14.0625 69.0625 C16.021875 69.041875 17.98125 69.02125 20 69 C20 73.29 20 77.58 20 82 C24.95 82 29.9 82 35 82 C35 77.71 35 73.42 35 69 C74.6 69 114.2 69 155 69 C155 73.29 155 77.58 155 82 C159.95 82 164.9 82 170 82 C170 77.71 170 73.42 170 69 C174.63867188 69.04882812 174.63867188 69.04882812 179.27734375 69.09765625 C181.91447634 69.31262571 181.91447634 69.31262571 183 68 C183.41360436 62.69621959 183.52807433 57.39170027 183.62475586 52.07373047 C183.66634889 50.28474453 183.7276548 48.49610077 183.80932617 46.70849609 C184.63063594 36.57114239 184.63063594 36.57114239 181.12719727 27.48461914 C178.51094813 25.63214722 175.91270656 24.33327603 173 23 C171.08955514 21.79970329 169.19502896 20.57373404 167.31640625 19.32421875 C165.39992855 18.10962328 163.48195114 16.897391 161.5625 15.6875 C159.626158 14.4624673 157.68995374 13.23721685 155.75390625 12.01171875 C154.91158447 11.48022217 154.0692627 10.94872559 153.20141602 10.40112305 C151.45379774 9.28882613 149.72364476 8.14909651 148 7 C146.00151029 6.6620763 146.00151029 6.6620763 143.78329468 6.65182495 C142.49345169 6.61301712 142.49345169 6.61301712 141.17755127 6.57342529 C140.23643494 6.55547913 139.2953186 6.53753296 138.32568359 6.51904297 C137.33152435 6.49305023 136.33736511 6.4670575 135.31307983 6.4402771 C124.83025015 6.18500161 114.34413056 6.07295197 103.85888672 5.97021484 C98.90715574 5.9171162 93.95937947 5.82025614 89.00927734 5.68310547 C51.24960365 3.62318523 51.24960365 3.62318523 19.28883362 20.97549438 Z " fill="#4B238D" transform="translate(0,0)"/>
<path d="M0 0 C4.77315771 0.06158703 9.54360436 0.02639012 14.31686974 -0.00948524 C18.96415019 -0.03386055 23.60985617 -0.00350615 28.25691605 0.04341507 C30.45333971 0.06060763 32.64993646 0.06312724 34.84638596 0.04963303 C49.44381777 0.00576844 58.91523003 2.19444821 70.45645523 11.33168411 C73.10557015 13.36546961 75.91024494 15.06262079 78.76367188 16.79614258 C80.26087088 17.72605222 81.7483566 18.67331265 83.20117188 19.67114258 C83.20117188 20.00114258 83.20117188 20.33114258 83.20117188 20.67114258 C30.40117187 20.67114258 -22.39882813 20.67114258 -76.79882812 20.67114258 C-75.14882812 19.35114258 -73.49882813 18.03114258 -71.79882812 16.67114258 C-70.56921522 15.46983865 -69.34311734 14.26492607 -68.12060547 13.05639648 C-48.94657778 -3.75319099 -23.93885572 -0.43456616 0 0 Z " fill="#4B238C" transform="translate(91.798828125,8.328857421875)"/>
<path d="M0 0 C0.85989532 -0.02587189 1.71979065 -0.05174377 2.60574341 -0.07839966 C4.01741791 -0.10531891 4.01741791 -0.10531891 5.45761108 -0.13278198 C6.45177032 -0.15877472 7.44592957 -0.18476746 8.47021484 -0.21154785 C18.95304453 -0.46682335 29.43916412 -0.57887298 39.92440796 -0.68161011 C44.87613894 -0.73470875 49.82391521 -0.83156881 54.77401733 -0.96871948 C106.80703598 -2.3763453 106.80703598 -2.3763453 124.49446106 14.32366943 C126.95613816 16.50105755 129.52824761 18.09779779 132.32797241 19.81106567 C136.50273627 22.67786177 136.50273627 22.67786177 137.64602661 25.40942383 C137.95523153 27.77446514 137.94070108 29.9290481 137.79501343 32.30911255 C137.78323563 33.14028595 137.77145782 33.97145935 137.75932312 34.82781982 C137.71026881 37.46323754 137.59109132 40.09014918 137.47079468 42.72317505 C137.4291719 44.51344039 137.39201727 46.30381553 137.35946655 48.0942688 C137.0618571 61.06961263 137.0618571 61.06961263 135.78329468 62.34817505 C131.78108815 62.49172622 127.78887785 62.39033908 123.78329468 62.34817505 C123.78329468 66.63817505 123.78329468 70.92817505 123.78329468 75.34817505 C118.83329468 75.34817505 113.88329468 75.34817505 108.78329468 75.34817505 C108.78329468 71.05817505 108.78329468 66.76817505 108.78329468 62.34817505 C69.18329468 62.34817505 29.58329468 62.34817505 -11.21670532 62.34817505 C-11.21670532 66.63817505 -11.21670532 70.92817505 -11.21670532 75.34817505 C-16.16670532 75.34817505 -21.11670532 75.34817505 -26.21670532 75.34817505 C-26.21670532 71.05817505 -26.21670532 66.76817505 -26.21670532 62.34817505 C-29.15576782 62.37911255 -29.15576782 62.37911255 -32.15420532 62.41067505 C-34.17503409 62.43194693 -36.19706333 62.42061558 -38.21670532 62.34817505 C-41.11497119 59.44990918 -39.76739566 49.49588113 -39.84146118 45.42190552 C-39.88305421 43.63291958 -39.94436012 41.84427581 -40.02603149 40.05667114 C-40.68822432 25.32458754 -40.68822432 25.32458754 -37.34390259 20.83279419 C-34.72765346 18.98032227 -32.12941188 17.68145107 -29.21670532 16.34817505 C-27.30626046 15.14787834 -25.41173428 13.92190909 -23.53311157 12.6723938 C-21.61663387 11.45779833 -19.69865647 10.24556605 -17.77920532 9.03567505 C-15.84286332 7.81064235 -13.90665906 6.5853919 -11.97061157 5.3598938 C-11.12828979 4.82839722 -10.28596802 4.29690063 -9.41812134 3.7492981 C-3.67374045 0.09320384 -3.67374045 0.09320384 0 0 Z M-18.48331833 13.00135231 C-21.12149884 15.05118972 -23.92345083 16.7415451 -26.77920532 18.47317505 C-28.27640433 19.40308469 -29.76389004 20.35034512 -31.21670532 21.34817505 C-31.21670532 21.67817505 -31.21670532 22.00817505 -31.21670532 22.34817505 C21.58329468 22.34817505 74.38329468 22.34817505 128.78329468 22.34817505 C125.52215944 19.73926686 122.49737726 17.42224618 119.02548218 15.18411255 C118.15278687 14.61950317 117.28009155 14.0548938 116.38095093 13.47317505 C115.48247437 12.89567505 114.5839978 12.31817505 113.65829468 11.72317505 C111.86397488 10.56439669 110.06970202 9.40554566 108.27548218 8.24661255 C107.48512573 7.73791626 106.69476929 7.22921997 105.88046265 6.70510864 C104.17239515 5.59993529 102.4760422 4.4766734 100.78329468 3.34817505 C98.79385353 3.02405063 98.79385353 3.02405063 96.58868408 3.03364563 C95.73405579 3.01499954 94.87942749 2.99635345 93.99890137 2.97714233 C93.06391815 2.96705139 92.12893494 2.95696045 91.1656189 2.94656372 C90.17811646 2.92860245 89.19061401 2.91064117 88.17318726 2.89213562 C84.89482475 2.83728716 81.61663225 2.7993946 78.33798218 2.7661438 C77.21456547 2.75424829 76.09114876 2.74235279 74.93368912 2.73009682 C68.97490535 2.67072361 63.01619991 2.62693346 57.05722046 2.5930481 C52.14875149 2.56203207 47.24227877 2.49961355 42.33456421 2.40847778 C36.39153658 2.29819797 30.45032519 2.24335315 24.50632095 2.22664833 C22.25380044 2.21148945 20.0013169 2.17772541 17.74938583 2.1240139 C2.86812451 1.78901207 -6.7420931 3.57785236 -18.48331833 13.00135231 Z M-36.21670532 25.34817505 C-36.21670532 36.56817505 -36.21670532 47.78817505 -36.21670532 59.34817505 C19.88329468 59.34817505 75.98329468 59.34817505 133.78329468 59.34817505 C133.78329468 48.12817505 133.78329468 36.90817505 133.78329468 25.34817505 C77.68329468 25.34817505 21.58329468 25.34817505 -36.21670532 25.34817505 Z " fill="#F7F5FA" transform="translate(46.216705322265625,6.651824951171875)"/>
<path d="M0 0 C4.29 0 8.58 0 13 0 C13.33 1.65 13.66 3.3 14 5 C14.66 5 15.32 5 16 5 C16 8.3 16 11.6 16 15 C12.85411056 15.02683697 9.70844729 15.04675902 6.5625 15.0625 C5.21575195 15.07506836 5.21575195 15.07506836 3.84179688 15.08789062 C2.56079102 15.09272461 2.56079102 15.09272461 1.25390625 15.09765625 C0.46314697 15.10289307 -0.3276123 15.10812988 -1.14233398 15.11352539 C-3 15 -3 15 -4 14 C-4.14115161 11.32941149 -4.04247107 8.67567762 -4 6 C-3.01 5.67 -2.02 5.34 -1 5 C-0.67 3.35 -0.34 1.7 0 0 Z " fill="#EEEBF4" transform="translate(107,42)"/>
<path d="M0 0 C4.29 0 8.58 0 13 0 C13.33 1.65 13.66 3.3 14 5 C14.99 5.33 15.98 5.66 17 6 C17.09765625 12.15234375 17.09765625 12.15234375 17 14 C16 15 16 15 14.14233398 15.11352539 C13.35157471 15.10828857 12.56081543 15.10305176 11.74609375 15.09765625 C10.89208984 15.09443359 10.03808594 15.09121094 9.15820312 15.08789062 C8.26037109 15.07951172 7.36253906 15.07113281 6.4375 15.0625 C5.53580078 15.05798828 4.63410156 15.05347656 3.70507812 15.04882812 C1.47002411 15.03700244 -0.76499602 15.01906638 -3 15 C-3 11.7 -3 8.4 -3 5 C-2.34 5 -1.68 5 -1 5 C-0.67 3.35 -0.34 1.7 0 0 Z " fill="#EEEAF4" transform="translate(52,42)"/>
<path d="M0 0 C4.62 0 9.24 0 14 0 C14 1.65 14 3.3 14 5 C14.99 5 15.98 5 17 5 C17.02689216 6.47906892 17.04634621 7.95827483 17.0625 9.4375 C17.07410156 10.26121094 17.08570312 11.08492187 17.09765625 11.93359375 C17 14 17 14 16 15 C14.66956375 15.0983721 13.33406656 15.13078592 12 15.1328125 C11.195625 15.13410156 10.39125 15.13539062 9.5625 15.13671875 C8.716875 15.13285156 7.87125 15.12898438 7 15.125 C6.154375 15.12886719 5.30875 15.13273437 4.4375 15.13671875 C3.633125 15.13542969 2.82875 15.13414063 2 15.1328125 C1.2575 15.13168457 0.515 15.13055664 -0.25 15.12939453 C-2 15 -2 15 -3 14 C-3.07179964 12.48071962 -3.08392007 10.95832518 -3.0625 9.4375 C-3.05347656 8.61121094 -3.04445313 7.78492188 -3.03515625 6.93359375 C-3.02355469 6.29550781 -3.01195313 5.65742187 -3 5 C-2.01 5 -1.02 5 0 5 C0 3.35 0 1.7 0 0 Z " fill="#F5F2F8" transform="translate(79,42)"/>
<path d="M0 0 C4.29 0 8.58 0 13 0 C13 1.65 13 3.3 13 5 C13.99 5 14.98 5 16 5 C16.02689216 6.47906892 16.04634621 7.95827483 16.0625 9.4375 C16.07410156 10.26121094 16.08570312 11.08492187 16.09765625 11.93359375 C16 14 16 14 15 15 C13.66956375 15.0983721 12.33406656 15.13078592 11 15.1328125 C10.195625 15.13410156 9.39125 15.13539062 8.5625 15.13671875 C7.716875 15.13285156 6.87125 15.12898438 6 15.125 C5.154375 15.12886719 4.30875 15.13273437 3.4375 15.13671875 C2.633125 15.13542969 1.82875 15.13414063 1 15.1328125 C0.2575 15.13168457 -0.485 15.13055664 -1.25 15.12939453 C-3 15 -3 15 -4 14 C-4.07179964 12.48071962 -4.08392007 10.95832518 -4.0625 9.4375 C-4.05347656 8.61121094 -4.04445313 7.78492188 -4.03515625 6.93359375 C-4.02355469 6.29550781 -4.01195313 5.65742187 -4 5 C-3.01 5 -2.02 5 -1 5 C-0.67 3.35 -0.34 1.7 0 0 Z " fill="#F4F2F8" transform="translate(25,42)"/>
<path d="M0 0 C3.96 0 7.92 0 12 0 C12 4.62 12 9.24 12 14 C8.04 14 4.08 14 0 14 C0 9.38 0 4.76 0 0 Z " fill="#F6F5F9" transform="translate(159,42)"/>
<path d="M0 0 C2.97 0 5.94 0 9 0 C9 1.65 9 3.3 9 5 C9.99 5 10.98 5 12 5 C12 6.32 12 7.64 12 9 C7.05 9 2.1 9 -3 9 C-3 7.68 -3 6.36 -3 5 C-2.01 5 -1.02 5 0 5 C0 3.35 0 1.7 0 0 Z " fill="#63419C" transform="translate(109,45)"/>
<path d="M0 0 C2.97 0 5.94 0 9 0 C9 1.65 9 3.3 9 5 C9.99 5 10.98 5 12 5 C12 6.32 12 7.64 12 9 C7.38 9 2.76 9 -2 9 C-2 7.68 -2 6.36 -2 5 C-1.34 5 -0.68 5 0 5 C0 3.35 0 1.7 0 0 Z " fill="#5F3C99" transform="translate(54,45)"/>
<path d="M0 0 C2.64 0 5.28 0 8 0 C8.12375 0.639375 8.2475 1.27875 8.375 1.9375 C8.58125 2.618125 8.7875 3.29875 9 4 C9.66 4.33 10.32 4.66 11 5 C11 6.32 11 7.64 11 9 C6.38 9 1.76 9 -3 9 C-3 7.68 -3 6.36 -3 5 C-2.34 4.67 -1.68 4.34 -1 4 C-0.34786708 1.97536745 -0.34786708 1.97536745 0 0 Z " fill="#583495" transform="translate(82,45)"/>
<path d="M0 0 C2.64 0 5.28 0 8 0 C8.12375 0.639375 8.2475 1.27875 8.375 1.9375 C8.58125 2.618125 8.7875 3.29875 9 4 C9.66 4.33 10.32 4.66 11 5 C11 6.32 11 7.64 11 9 C6.38 9 1.76 9 -3 9 C-3 7.68 -3 6.36 -3 5 C-2.34 4.67 -1.68 4.34 -1 4 C-0.34786708 1.97536745 -0.34786708 1.97536745 0 0 Z " fill="#593495" transform="translate(27,45)"/>
<path d="M0 0 C2.97 0 5.94 0 9 0 C9 3.3 9 6.6 9 10 C6.03 10 3.06 10 0 10 C0 6.7 0 3.4 0 0 Z " fill="#563093" transform="translate(158,69)"/>
<path d="M0 0 C2.97 0 5.94 0 9 0 C9 3.3 9 6.6 9 10 C6.03 10 3.06 10 0 10 C0 6.7 0 3.4 0 0 Z " fill="#563093" transform="translate(23,69)"/>
<path d="M0 0 C0.66 0.33 1.32 0.66 2 1 C0.56068496 4.58139422 -1.08809837 6.01403367 -4.3515625 8.015625 C-5.20234375 8.54414063 -6.053125 9.07265625 -6.9296875 9.6171875 C-7.81914062 10.15601563 -8.70859375 10.69484375 -9.625 11.25 C-10.5221875 11.80429687 -11.419375 12.35859375 -12.34375 12.9296875 C-14.55719723 14.29543153 -16.77589291 15.65171039 -19 17 C-19 14 -19 14 -16.94921875 11.6171875 C-13.73271907 8.7628103 -10.43357457 6.42553641 -6.8125 4.125 C-5.86987305 3.50238281 -5.86987305 3.50238281 -4.90820312 2.8671875 C-3.3135366 1.84387208 -1.66017913 0.91320373 0 0 Z " fill="#F0EDF5" transform="translate(37,10)"/>
<path d="M0 0 C1.98 0 3.96 0 6 0 C6 2.64 6 5.28 6 8 C4.02 8 2.04 8 0 8 C0 5.36 0 2.72 0 0 Z " fill="#4A228C" transform="translate(162,45)"/>
<path d="M0 0 C4.95 0 9.9 0 15 0 C15 0.99 15 1.98 15 3 C10.05 3 5.1 3 0 3 C0 2.01 0 1.02 0 0 Z " fill="#EEEBF4" transform="translate(133,54)"/>
<path d="M0 0 C4.95 0 9.9 0 15 0 C15 0.99 15 1.98 15 3 C10.05 3 5.1 3 0 3 C0 2.01 0 1.02 0 0 Z " fill="#F3F1F7" transform="translate(133,42)"/>
</svg>
