<?xml version="1.0" encoding="UTF-8"?>
<svg version="1.1" xmlns="http://www.w3.org/2000/svg" width="207" height="233">
<path d="M0 0 C68.31 0 136.62 0 207 0 C207 76.89 207 153.78 207 233 C138.69 233 70.38 233 0 233 C0 156.11 0 79.22 0 0 Z " fill="#FEFEFE" transform="translate(0,0)"/>
<path d="M0 0 C4.47443826 0.95829354 7.62795994 4.00798002 10.42578125 7.51953125 C11.69548882 11.56156512 11.53645033 15.57511629 11.48828125 19.76953125 C11.48376953 20.51460937 11.47925781 21.2596875 11.47460938 22.02734375 C11.46287371 23.85810765 11.44493975 25.68882998 11.42578125 27.51953125 C13.69691928 27.37852268 15.9676885 27.2315637 18.23828125 27.08203125 C19.50285156 27.00082031 20.76742187 26.91960938 22.0703125 26.8359375 C25.41760018 26.64768578 25.41760018 26.64768578 28.42578125 25.51953125 C28.26078125 24.88015625 28.09578125 24.24078125 27.92578125 23.58203125 C26.97647278 17.76751688 26.52286326 13.35761431 29.17578125 7.95703125 C31.90225727 5.16004292 34.61771984 4.98056914 38.42578125 4.76953125 C42.27402094 4.97805655 44.94950127 5.16790506 47.67578125 8.01953125 C49.91639693 12.50076261 50.05550207 14.56047983 49.42578125 19.51953125 C47.99266919 23.1023114 46.85683548 24.25715041 43.55078125 26.26953125 C40.42578125 27.51953125 40.42578125 27.51953125 37.80078125 27.83203125 C37.01703125 28.05890625 36.23328125 28.28578125 35.42578125 28.51953125 C34.92820312 29.51597656 34.430625 30.51242188 33.91796875 31.5390625 C31.42578125 34.51953125 31.42578125 34.51953125 29.22998047 35.01196289 C26.52393273 35.11042539 23.879497 35.0422132 21.17578125 34.89453125 C19.77199219 34.85392578 19.77199219 34.85392578 18.33984375 34.8125 C16.03416827 34.7419181 13.72967992 34.63430111 11.42578125 34.51953125 C11.42578125 40.78953125 11.42578125 47.05953125 11.42578125 53.51953125 C16.15849753 53.4223187 20.89039408 53.31941922 25.62255859 53.20214844 C27.23055607 53.16399366 28.83863498 53.12911777 30.44677734 53.09765625 C32.76559441 53.05171065 35.08385745 52.99376744 37.40234375 52.93359375 C38.11508453 52.92204254 38.82782532 52.91049133 39.56216431 52.89859009 C43.85127366 52.77330824 47.46819718 52.20593743 51.42578125 50.51953125 C52.59244792 48.68619792 52.59244792 48.68619792 52.42578125 46.51953125 C51.96171875 45.62234375 51.96171875 45.62234375 51.48828125 44.70703125 C49.89879731 41.43456431 49.99203168 39.11345629 50.42578125 35.51953125 C52.21054366 32.54713884 54.2778618 30.09349098 57.42578125 28.51953125 C63.52975721 28.01086659 66.53347291 28.46249507 71.42578125 32.51953125 C73.28304741 36.23406357 73.01079214 40.4753255 72.42578125 44.51953125 C70.23555207 47.34377413 68.59560918 48.93461728 65.42578125 50.51953125 C63.09279465 50.55975516 60.75871459 50.56273372 58.42578125 50.51953125 C58.02359375 51.60234375 58.02359375 51.60234375 57.61328125 52.70703125 C57.22140625 53.63515625 56.82953125 54.56328125 56.42578125 55.51953125 C55.93984497 56.82893677 55.93984497 56.82893677 55.4440918 58.16479492 C53.42578125 60.51953125 53.42578125 60.51953125 51.53189087 60.95547485 C48.98887316 61.10093559 46.49153589 61.08056255 43.9453125 61.0078125 C43.01732346 61.00073776 42.08933441 60.99366302 41.13322449 60.9863739 C38.16742545 60.95837068 35.20351017 60.89562158 32.23828125 60.83203125 C30.22854288 60.80695603 28.21877493 60.78414151 26.20898438 60.76367188 C21.27993946 60.71277302 16.35496984 60.6149349 11.42578125 60.51953125 C11.42578125 66.78953125 11.42578125 73.05953125 11.42578125 79.51953125 C18.04618348 79.40128262 24.66643558 79.27703382 31.28662109 79.1472168 C33.53886857 79.10389811 35.79114824 79.06222083 38.04345703 79.0222168 C41.28037214 78.96444022 44.51712567 78.90076673 47.75390625 78.8359375 C48.76132874 78.81922501 49.76875122 78.80251251 50.80670166 78.78529358 C52.21771149 78.75537575 52.21771149 78.75537575 53.65722656 78.72485352 C54.48329407 78.70930923 55.30936157 78.69376495 56.16046143 78.67774963 C58.39156575 78.52192099 60.31027719 78.24719441 62.42578125 77.51953125 C63.517444 75.58622522 63.517444 75.58622522 64.42578125 73.51953125 C68.69355874 70.67434625 72.4216408 70.66611195 77.42578125 71.51953125 C80.34747238 72.97750678 81.95917915 74.60358119 83.42578125 77.51953125 C84.31453332 82.20228376 84.05881747 86.1027359 82.11328125 90.45703125 C78.13499082 95.31938622 78.13499082 95.31938622 75.515625 96.05859375 C69.16399633 96.3121978 65.76872824 94.18399599 60.8828125 90.24609375 C55.25200997 86.28931359 49.50225792 86.19393363 42.87109375 86.10546875 C41.96954559 86.0861026 41.06799744 86.06673645 40.13912964 86.04678345 C37.27644129 85.98728829 34.41371207 85.94072308 31.55078125 85.89453125 C29.60284762 85.85632378 27.65493039 85.81727045 25.70703125 85.77734375 C20.94670277 85.68002869 16.18653635 85.60022201 11.42578125 85.51953125 C11.42578125 91.78953125 11.42578125 98.05953125 11.42578125 104.51953125 C14.3390625 104.473125 17.25234375 104.42671875 20.25390625 104.37890625 C23.07696796 104.34770705 25.90001042 104.32342134 28.72314453 104.29980469 C30.68449506 104.27969493 32.64578569 104.25240307 34.60693359 104.21777344 C37.4269082 104.16922704 40.2460899 104.14655639 43.06640625 104.12890625 C44.38067596 104.09793854 44.38067596 104.09793854 45.72149658 104.06634521 C51.79893261 104.06410752 51.79893261 104.06410752 54.93261719 106.34082031 C56.72373747 108.95428621 57.59513512 111.47382878 58.42578125 114.51953125 C59.01746094 114.53371094 59.60914063 114.54789062 60.21875 114.5625 C64.35800353 114.81234075 66.92880074 115.20511501 70.48828125 117.45703125 C73.22784689 121.78731242 73.47515376 125.52681362 72.42578125 130.51953125 C70.23555207 133.34377413 68.59560918 134.93461728 65.42578125 136.51953125 C61.01267965 137.03922082 57.56418974 137.37333762 53.92578125 134.64453125 C51.1061696 130.65008141 51.17665701 127.28848106 51.42578125 122.51953125 C51.63203125 121.44703125 51.83828125 120.37453125 52.05078125 119.26953125 C52.73335855 116.19474977 52.73335855 116.19474977 50.42578125 112.51953125 C31.12078125 112.02453125 31.12078125 112.02453125 11.42578125 111.51953125 C11.42578125 117.78953125 11.42578125 124.05953125 11.42578125 130.51953125 C13.52179688 130.43251953 13.52179688 130.43251953 15.66015625 130.34375 C17.49866452 130.29684928 19.33720891 130.25134945 21.17578125 130.20703125 C22.55636719 130.14418945 22.55636719 130.14418945 23.96484375 130.08007812 C30.80452253 129.9561709 30.80452253 129.9561709 34.06640625 132.9140625 C35.42578125 135.51953125 35.42578125 135.51953125 35.42578125 137.51953125 C36.29203125 137.43703125 37.15828125 137.35453125 38.05078125 137.26953125 C42.2467653 137.58034488 44.16506576 138.92578029 47.42578125 141.51953125 C49.90075684 145.23199463 50.08481584 148.21546587 49.42578125 152.51953125 C47.72004248 155.93100879 46.39077698 157.9030062 43.17578125 159.95703125 C39.39534138 160.73030304 36.06884497 160.76816196 32.42578125 159.51953125 C28.90514023 156.43897036 27.57105092 154.68168862 26.98828125 150.01953125 C27.41412963 146.61274421 28.29942801 143.74841054 29.42578125 140.51953125 C29.09578125 139.85953125 28.76578125 139.19953125 28.42578125 138.51953125 C20.01078125 138.02453125 20.01078125 138.02453125 11.42578125 137.51953125 C11.50445915 142.56016081 11.50445915 142.56016081 11.60595703 147.6003418 C11.65213812 153.49140957 10.88777464 156.87010281 6.98828125 161.26953125 C3.28297798 164.52296827 0.29071244 164.82974952 -4.58203125 164.72265625 C-7.69775522 164.40497459 -9.22892258 163.60423896 -11.57421875 161.51953125 C-15.57421875 155.1064165 -15.57421875 155.1064165 -15.57421875 151.51953125 C-16.60546875 151.43703125 -17.63671875 151.35453125 -18.69921875 151.26953125 C-26.46613352 149.76625742 -30.62703411 144.87013715 -34.88671875 138.58203125 C-35.89738577 135.5500302 -35.69599095 132.68560844 -35.57421875 129.51953125 C-36.44046875 129.60203125 -37.30671875 129.68453125 -38.19921875 129.76953125 C-43.91386296 129.34622427 -47.16176627 126.15312446 -50.82421875 122.01953125 C-54.90585023 117.19179509 -55.74858029 114.27409977 -55.32421875 107.89453125 C-55.21754623 102.71024688 -55.51600758 99.84599893 -58.57421875 95.64453125 C-63.0839747 89.18980947 -62.51534759 82.01719104 -61.57421875 74.51953125 C-60.32983482 70.48680556 -58.58631714 67.53162964 -55.57421875 64.51953125 C-55.55972288 62.31036122 -55.63655764 60.10020055 -55.76171875 57.89453125 C-55.84319316 51.25436662 -55.07131153 47.41409435 -50.57421875 42.51953125 C-49.77757812 41.63974609 -49.77757812 41.63974609 -48.96484375 40.7421875 C-44.72225093 36.60663258 -41.44474245 35.72551454 -35.57421875 35.51953125 C-35.69796875 34.57078125 -35.82171875 33.62203125 -35.94921875 32.64453125 C-35.92660294 27.08104099 -32.94875811 22.75200435 -29.57421875 18.51953125 C-25.94078187 15.28980957 -22.9370924 13.6412164 -18.07421875 13.20703125 C-17.24921875 13.31015625 -16.42421875 13.41328125 -15.57421875 13.51953125 C-15.51234375 12.63265625 -15.45046875 11.74578125 -15.38671875 10.83203125 C-13.55601045 3.36837432 -7.26687859 -0.1308276 0 0 Z " fill="#696969" transform="translate(87.57421875,36.48046875)"/>
<path d="M0 0 C2 2 2 2 2.3125 5.5 C2.1578125 7.2325 2.1578125 7.2325 2 9 C-1 11 -1 11 -3.5625 10.75 C-6 10 -6 10 -8 8 C-8.3125 5 -8.3125 5 -8 2 C-4.77626323 -0.14915785 -3.73296326 -0.38286803 0 0 Z " fill="#ECECEC" transform="translate(152,156)"/>
<path d="M0 0 C3 0.25 3 0.25 5 2.25 C5.125 5.875 5.125 5.875 5 9.25 C2.26094655 10.61952673 0.02912668 10.37621361 -3 10.25 C-3.66 9.92 -4.32 9.59 -5 9.25 C-5.125 5.875 -5.125 5.875 -5 2.25 C-3 0.25 -3 0.25 0 0 Z " fill="#F0F0F0" transform="translate(126,47.75)"/>
<path d="M0 0 C2 2 2 2 2.25 5 C2 8 2 8 0 10 C-3 10.25 -3 10.25 -6 10 C-8 8 -8 8 -8.125 4.375 C-8.08375 3.26125 -8.0425 2.1475 -8 1 C-5.23749964 -0.38125018 -3.05268901 -0.19079306 0 0 Z " fill="#F0F0F0" transform="translate(129,180)"/>
<path d="M0 0 C3.5 0.125 3.5 0.125 4.5 1.125 C4.6875 4.5625 4.6875 4.5625 4.5 8.125 C3.84 8.785 3.18 9.445 2.5 10.125 C-3.06818182 9.55681818 -3.06818182 9.55681818 -4.5 8.125 C-4.625 4.625 -4.625 4.625 -4.5 1.125 C-3.5 0.125 -3.5 0.125 0 0 Z " fill="#F8F8F8" transform="translate(159.5,113.875)"/>
<path d="M0 0 C2.5 0.25 2.5 0.25 4.5 2.25 C4.625 5.875 4.625 5.875 4.5 9.25 C1.76752652 10.61623674 -0.48198902 10.378426 -3.5 10.25 C-4.5 9.25 -4.5 9.25 -4.6875 5.8125 C-4.47268534 1.73102138 -4.19787247 0.41978725 0 0 Z " fill="#F4F4F4" transform="translate(149.5,70.75)"/>
<path d="M0 0 C0.66 0.33 1.32 0.66 2 1 C-0.31 3.31 -2.62 5.62 -5 8 C-5 5 -5 5 -2.5 2.3125 C-1.675 1.549375 -0.85 0.78625 0 0 Z " fill="#7A7A7A" transform="translate(79,38)"/>
</svg>
