<?xml version="1.0" encoding="UTF-8"?>
<svg version="1.1" xmlns="http://www.w3.org/2000/svg" width="125" height="172">
<path d="M0 0 C41.25 0 82.5 0 125 0 C125 56.76 125 113.52 125 172 C83.75 172 42.5 172 0 172 C0 115.24 0 58.48 0 0 Z " fill="#F5F3F8" transform="translate(0,0)"/>
<path d="M0 0 C21.78 0 43.56 0 66 0 C66.495 8.91 66.495 8.91 67 18 C68.37956036 23.58393479 69.62416901 28.0847828 74 32 C84.42936836 35.91967112 84.42936836 35.91967112 102 36 C102 59.1 102 82.2 102 106 C68.34 106 34.68 106 0 106 C0 71.02 0 36.04 0 0 Z " fill="#4C248E" transform="translate(11,18)"/>
<path d="M0 0 C41.25 0 82.5 0 125 0 C125 56.76 125 113.52 125 172 C83.75 172 42.5 172 0 172 C0 115.24 0 58.48 0 0 Z M6 13 C6 62.5 6 112 6 163 C42.96 163 79.92 163 118 163 C118.15015971 141.84872407 118.15015971 141.84872407 118.25126934 120.69737244 C118.27899717 113.13402657 118.31422115 105.57095583 118.37719727 98.0078125 C118.43234803 91.3813007 118.46140346 84.75500871 118.47438622 78.12825775 C118.48364089 75.59720926 118.50171266 73.06617749 118.52865028 70.53525543 C118.56482823 66.99612414 118.5699498 63.45823108 118.56762695 59.91894531 C118.58560333 58.86734222 118.60357971 57.81573914 118.62210083 56.73226929 C118.71823965 51.05908102 118.71823965 51.05908102 115.66386414 46.534729 C114.78478897 46.02826843 113.90571381 45.52180786 113 45 C111.90003274 43.87670278 110.83491468 42.71803274 109.81054688 41.52539062 C108.90937134 40.48282104 108.90937134 40.48282104 107.98999023 39.41918945 C106.5647745 37.68658453 105.18196311 35.91875664 103.82836914 34.12963867 C96.34377471 24.32752246 88.09992886 13.53260488 75.29773712 11.33000946 C64.38675055 10.04767273 53.43004929 10.86302446 42.5 11.5 C30.455 11.995 18.41 12.49 6 13 Z " fill="#4F2990" transform="translate(0,0)"/>
<path d="M0 0 C24.42 0 48.84 0 74 0 C74.495 2.475 74.495 2.475 75 5 C49.92 5 24.84 5 -1 5 C-0.67 3.35 -0.34 1.7 0 0 Z " fill="#EBE7F2" transform="translate(25,99)"/>
<path d="M0 0 C25.08 0 50.16 0 76 0 C75.67 1.65 75.34 3.3 75 5 C50.58 5 26.16 5 1 5 C0.67 3.35 0.34 1.7 0 0 Z " fill="#EAE5F1" transform="translate(24,66)"/>
<path d="M0 0 C3.29782822 1.44024031 5.47430635 3.22837439 8.00390625 5.7734375 C8.74447266 6.5159375 9.48503906 7.2584375 10.24804688 8.0234375 C11.01181641 8.79945312 11.77558594 9.57546875 12.5625 10.375 C13.33013672 11.14328125 14.09777344 11.9115625 14.88867188 12.703125 C20.65685589 18.5165694 20.65685589 18.5165694 22.55444336 21.18994141 C23.96263451 23.28974254 23.96263451 23.28974254 27 24 C27 24.99 27 25.98 27 27 C24.12397545 27.10852923 21.25209168 27.1875515 18.375 27.25 C17.56675781 27.28351562 16.75851563 27.31703125 15.92578125 27.3515625 C10.46261964 27.4403944 7.21346961 26.8212247 3 23 C-0.37401657 18.1193471 -0.37603072 13.82926296 -0.1875 8.125 C-0.17396484 7.34125 -0.16042969 6.5575 -0.14648438 5.75 C-0.11141789 3.83303218 -0.05762072 1.91642249 0 0 Z " fill="#583496" transform="translate(82,22)"/>
<path d="M0 0 C3.0036402 0.71890405 4.87303272 1.99653134 6.60546875 4.5859375 C8.15461034 8.5405301 8.17100144 12.43054536 7.3828125 16.5703125 C5.49766027 19.14668721 4.18946393 20.16698678 1.3828125 21.5703125 C-3.0302891 22.09000207 -6.47877901 22.42411887 -10.1171875 19.6953125 C-13.13156162 15.42494916 -13.33845442 11.69645954 -12.6171875 6.5703125 C-10.28309835 0.69936378 -5.85158801 -0.40175082 0 0 Z " fill="#5A3597" transform="translate(72.6171875,131.4296875)"/>
<path d="M0 0 C25.08 0 50.16 0 76 0 C76 1.32 76 2.64 76 4 C50.92 4 25.84 4 0 4 C0 2.68 0 1.36 0 0 Z " fill="#FDFDFE" transform="translate(24,83)"/>
<path d="M0 0 C0.91007812 0.00902344 1.82015625 0.01804688 2.7578125 0.02734375 C3.45648438 0.03894531 4.15515625 0.05054688 4.875 0.0625 C5.205 1.7125 5.535 3.3625 5.875 5.0625 C4.93527344 5.01029297 4.93527344 5.01029297 3.9765625 4.95703125 C3.15929687 4.92996094 2.34203125 4.90289062 1.5 4.875 C0.28183594 4.82279297 0.28183594 4.82279297 -0.9609375 4.76953125 C-1.67507812 4.86621094 -2.38921875 4.96289062 -3.125 5.0625 C-5.49722995 7.95829382 -5.49722995 7.95829382 -4.875 11.625 C-4.4391556 15.10842612 -4.4391556 15.10842612 -2.125 17.0625 C-0.05625966 17.7050235 -0.05625966 17.7050235 1.875 18.0625 C1.875 15.4225 1.875 12.7825 1.875 10.0625 C3.525 10.0625 5.175 10.0625 6.875 10.0625 C6.875 13.6925 6.875 17.3225 6.875 21.0625 C-5.31573231 21.50312888 -5.31573231 21.50312888 -9.125 18.0625 C-11.46613009 15.05247559 -11.53716607 11.78508458 -11.453125 8.03125 C-10.93447233 4.91933396 -9.33945226 3.21182131 -7.125 1.0625 C-4.60024538 -0.19987731 -2.81299534 -0.03606404 0 0 Z " fill="#593496" transform="translate(94.125,131.9375)"/>
<path d="M0 0 C12.54 0 25.08 0 38 0 C38.495 1.98 38.495 1.98 39 4 C38 5 38 5 34.30639648 5.11352539 C32.66128708 5.11336624 31.01617269 5.10766988 29.37109375 5.09765625 C28.07474754 5.09553383 28.07474754 5.09553383 26.75221252 5.09336853 C23.98060708 5.08775239 21.2090812 5.07519719 18.4375 5.0625 C16.5631522 5.05748708 14.68880315 5.05292381 12.81445312 5.04882812 C8.20960456 5.03777772 3.60481579 5.0205023 -1 5 C-0.67 3.35 -0.34 1.7 0 0 Z " fill="#F0EDF5" transform="translate(25,49)"/>
<path d="M0 0 C1.32 0 2.64 0 4 0 C4 5.61 4 11.22 4 17 C6.97 17 9.94 17 13 17 C13 18.32 13 19.64 13 21 C8.38 21 3.76 21 -1 21 C-1.02683436 17.68744674 -1.0467578 14.37510817 -1.0625 11.0625 C-1.07087891 10.11697266 -1.07925781 9.17144531 -1.08789062 8.19726562 C-1.09111328 7.29814453 -1.09433594 6.39902344 -1.09765625 5.47265625 C-1.10289307 4.64000244 -1.10812988 3.80734863 -1.11352539 2.94946289 C-1 1 -1 1 0 0 Z " fill="#5E3B99" transform="translate(45,132)"/>
<path d="M0 0 C2.875 0.6875 2.875 0.6875 3.875 1.6875 C4.23590226 9.14614662 4.23590226 9.14614662 1.875 12.6875 C-1.125 13 -1.125 13 -4.125 12.6875 C-6.55022207 10.26227793 -6.42129254 9.5154321 -6.4375 6.1875 C-6.45425781 5.3934375 -6.47101563 4.599375 -6.48828125 3.78125 C-6.30845703 2.74484375 -6.30845703 2.74484375 -6.125 1.6875 C-3.125 -0.3125 -3.125 -0.3125 0 0 Z " fill="#F6F5F9" transform="translate(71.125,136.3125)"/>
<path d="M0 0 C1.98 0.495 1.98 0.495 4 1 C3.67 2.32 3.34 3.64 3 5 C1.68 5 0.36 5 -1 5 C-0.67 3.35 -0.34 1.7 0 0 Z " fill="#583396" transform="translate(37,148)"/>
<path d="M0 0 C-1.15173355 2.46800047 -2.04783565 4.04783565 -4 6 C-4.40047444 8.32275177 -4.7397104 10.65739357 -5 13 C-5.33 13 -5.66 13 -6 13 C-6.48929664 5.78287462 -6.48929664 5.78287462 -4.125 2 C-2 0 -2 0 0 0 Z " fill="#8469B1" transform="translate(89,133)"/>
</svg>
