<svg width="57" height="57" viewBox="0 0 57 57" fill="none" xmlns="http://www.w3.org/2000/svg">
<g clip-path="url(#clip0_938_702)">
<path d="M41.3608 16.0605H25.8908C25.5608 16.0605 25.3008 16.3205 25.3008 16.6505V22.4705H32.4808C33.3808 22.4705 34.1008 23.2005 34.1008 24.0905V28.1005H37.2908C37.7008 28.1005 38.0908 28.2405 38.4008 28.5005L41.9408 31.4705V16.6505C41.9408 16.3205 41.6808 16.0605 41.3508 16.0605H41.3608ZM39.4708 24.5905H35.8708V22.8305H39.4708V24.5905ZM39.4708 20.9605H27.7908V19.2005H39.4708V20.9605Z" fill="#EE7100"/>
<path d="M31.7602 24.2307H15.3302C15.0002 24.2307 14.7402 24.4907 14.7402 24.8207V40.6307L18.5502 37.4007C18.8602 37.1407 19.2502 36.9907 19.6602 36.9907H31.7602C32.0902 36.9907 32.3502 36.7307 32.3502 36.4007V24.8107C32.3502 24.4807 32.0902 24.2207 31.7602 24.2207V24.2307ZM29.3902 33.1207H17.7102V31.3607H29.3902V33.1207ZM29.3902 29.4907H17.7102V27.7307H29.3902V29.4907Z" fill="black"/>
</g>
<defs>
<clipPath id="clip0_938_702">
<rect width="56.69" height="56.69" fill="white"/>
</clipPath>
</defs>
</svg>
